<svg width="101" height="88" viewBox="0 0 101 88" fill="none" xmlns="http://www.w3.org/2000/svg">
<path d="M37.5 37C45.232 37 51.5 30.2843 51.5 22C51.5 13.7157 45.232 7 37.5 7C29.768 7 23.5 13.7157 23.5 22C23.5 30.2843 29.768 37 37.5 37Z" stroke="#E6EBEB" stroke-width="5"/>
<path d="M65.5 64.5C65.5 73.6128 65.5 81 37 81C8.5 81 8.5 73.6128 8.5 64.5C8.5 55.3872 21.2599 48 37 48C52.7402 48 65.5 55.3872 65.5 64.5Z" stroke="#E6EBEB" stroke-width="5"/>
<path d="M69 31.9325L67.0852 33.8034C67.592 34.3044 68.2811 34.5861 69 34.5861C69.7189 34.5861 70.408 34.3044 70.9148 33.8034L69 31.9325ZM67.3566 43.604C65.6056 42.2903 64.0284 41.2395 62.7572 39.8776C61.5793 38.6156 60.9 37.3114 60.9 35.6694H55.5C55.5 39.0249 56.9911 41.5508 58.7782 43.4653C60.472 45.2804 62.6539 46.7527 64.0806 47.823L67.3566 43.604ZM60.9 35.6694C60.9 34.2118 61.7633 33.0334 62.8703 32.5519C63.8286 32.135 65.3546 32.0924 67.0852 33.8034L70.9148 30.0615C67.7857 26.9681 63.9114 26.2953 60.6851 27.6987C57.6067 29.0375 55.5 32.1297 55.5 35.6694H60.9ZM64.0806 47.823C64.617 48.2249 65.3122 48.7471 66.0455 49.1547C66.7795 49.563 67.7962 50 69 50V44.6927C69.1238 44.6927 69.0605 44.7334 68.7044 44.5356C68.3473 44.3372 67.942 44.0428 67.3566 43.604L64.0806 47.823ZM73.9194 47.823C75.3461 46.7527 77.528 45.2804 79.2218 43.4653C81.0089 41.5508 82.5 39.0249 82.5 35.6694H77.1C77.1 37.3114 76.4207 38.6156 75.2428 39.8776C73.9716 41.2395 72.3944 42.2903 70.6434 43.604L73.9194 47.823ZM82.5 35.6694C82.5 32.1297 80.3933 29.0375 77.3149 27.6987C74.0886 26.2953 70.2143 26.9681 67.0852 30.0615L70.9148 33.8034C72.6454 32.0924 74.1714 32.135 75.1297 32.5519C76.2367 33.0334 77.1 34.2118 77.1 35.6694H82.5ZM70.6434 43.604C70.058 44.0428 69.6527 44.3372 69.2956 44.5356C68.9395 44.7334 68.8762 44.6927 69 44.6927V50C70.2038 50 71.2205 49.563 71.9545 49.1547C72.6878 48.7471 73.383 48.2249 73.9194 47.823L70.6434 43.604Z" fill="#E6EBEB"/>
</svg>
